<svg width="63" height="23" viewBox="0 0 63 23" fill="none" xmlns="http://www.w3.org/2000/svg">
<path d="M21.5312 5.37109C20.6406 5.37109 19.5859 5.94531 18.3672 7.09375C17.1484 8.21875 15.9648 9.60156 14.8164 11.2422C12.9883 13.8672 11.125 16.8906 9.22656 20.3125L8.27734 22H3.32031C3.32031 22 3.68359 20.8984 4.41016 18.6953C6.44922 12.6016 7.46875 8.99219 7.46875 7.86719C7.46875 6.71875 7.28125 6.14453 6.90625 6.14453C6.22656 6.14453 5.41797 6.95312 4.48047 8.57031C4.26953 8.94531 4.09375 9.25 3.95312 9.48438C3.8125 9.69531 3.64844 9.96484 3.46094 10.293C3.29688 10.5977 3.19141 10.7852 3.14453 10.8555L0.789062 9.48438C2.61719 6.50781 4.29297 4.31641 5.81641 2.91016C7.33984 1.48047 8.89844 0.765625 10.4922 0.765625C11.2188 0.765625 11.8398 1.07031 12.3555 1.67969C12.8945 2.28906 13.1641 3.01562 13.1641 3.85938C13.1641 4.67969 13.1172 5.41797 13.0234 6.07422C12.9297 6.70703 12.8242 7.29297 12.707 7.83203C12.5898 8.37109 12.4258 9.01562 12.2148 9.76562C12.0039 10.5156 11.8281 11.0898 11.6875 11.4883C11.5703 11.8867 11.4062 12.4258 11.1953 13.1055C10.9844 13.7852 10.8555 14.1836 10.8086 14.3008C11.2305 13.457 11.9453 12.2148 12.9531 10.5742C13.9609 8.93359 14.6172 7.90234 14.9219 7.48047C15.2266 7.05859 15.6484 6.49609 16.1875 5.79297C16.7266 5.08984 17.1953 4.55078 17.5938 4.17578C18.0156 3.77734 18.5078 3.33203 19.0703 2.83984C19.6562 2.32422 20.207 1.9375 20.7227 1.67969C22.0352 1.07031 23.3008 0.765625 24.5195 0.765625C25.7383 0.765625 26.7109 1.12891 27.4375 1.85547C28.1875 2.55859 28.5625 3.39062 28.5625 4.35156C28.5625 5.28906 28.2578 6.12109 27.6484 6.84766C27.0625 7.55078 26.3711 7.90234 25.5742 7.90234C24.8008 7.90234 24.1914 7.77344 23.7461 7.51562C23.3008 7.23438 22.9961 6.94141 22.832 6.63672C22.3398 5.79297 21.9062 5.37109 21.5312 5.37109Z" fill="#AC1C1C"/>
<path d="M49.9023 6.67188L49.6914 13.1406C49.6914 17.4062 50.1953 19.5391 51.2031 19.5391C52.2109 19.5391 53.3359 18.8242 54.5781 17.3945C55.8438 15.9414 56.9102 14.1836 57.7773 12.1211C58.668 10.0586 59.1133 8.19531 59.1133 6.53125C58.8789 6.71875 58.3281 6.8125 57.4609 6.8125C56.6172 6.8125 55.9141 6.54297 55.3516 6.00391C54.7891 5.46484 54.5078 4.78516 54.5078 3.96484C54.5078 3.14453 54.8125 2.40625 55.4219 1.75C56.0547 1.09375 56.9922 0.765625 58.2344 0.765625C59.4766 0.765625 60.4844 1.16406 61.2578 1.96094C62.0312 2.75781 62.418 3.85938 62.418 5.26562C62.418 6.64844 62.1133 8.3125 61.5039 10.2578C60.918 12.2031 60.1094 14.1016 59.0781 15.9531C58.0469 17.8047 56.6992 19.375 55.0352 20.6641C53.3945 21.9297 51.6367 22.5625 49.7617 22.5625C48.0977 22.5625 46.9141 21.6016 46.2109 19.6797C45.625 18.0859 45.2969 16.6914 45.2266 15.4961C45.1562 14.2773 45.0977 13.3281 45.0508 12.6484C41.8398 17.5703 39.0977 20.6172 36.8242 21.7891C35.8164 22.3047 34.7969 22.5625 33.7656 22.5625C31.4688 22.5625 30.3203 21.2148 30.3203 18.5195C30.3203 16.9961 30.7539 14.9336 31.6211 12.332C32.5117 9.70703 32.957 8.03125 32.957 7.30469C32.957 6.57812 32.7461 6.21484 32.3242 6.21484C31.6914 6.21484 30.4375 7.73828 28.5625 10.7852L26.2773 9.48438C29.7227 3.67188 32.8867 0.765625 35.7695 0.765625C36.543 0.765625 37.2109 1.05859 37.7734 1.64453C38.3594 2.20703 38.6523 3.14453 38.6523 4.45703C38.6523 5.74609 38.1836 8.13672 37.2461 11.6289C36.3086 15.1211 35.8398 16.9727 35.8398 17.1836C35.8398 18.1445 36.1445 18.625 36.7539 18.625C37.3633 18.625 38.2656 17.8516 39.4609 16.3047C40.6797 14.7578 41.8516 13.0469 42.9766 11.1719C45.9062 6.20312 47.875 3.71875 48.8828 3.71875C49.5625 3.71875 49.9023 4.70312 49.9023 6.67188Z" fill="#AC1C1C"/>
</svg>
